<svg id="Layer_1" data-name="Layer 1" xmlns="http://www.w3.org/2000/svg" viewBox="0 0 1332 305.89"><defs><style>.cls-1{fill:#231f20;}.cls-2{fill:#000f9f;}</style></defs><path class="cls-1" d="M439.94,268.67a4.86,4.86,0,0,1-2-.54,2.67,2.67,0,0,1-1.09-1.12,6.27,6.27,0,0,1-.55-2.22l-3.11-37.55c-.11-.94-.22-2-.33-3.08a20.69,20.69,0,0,1-.08-3.24,2.27,2.27,0,0,1,.74-1.72,5.15,5.15,0,0,1,1.81-1,9.46,9.46,0,0,1,2.31-.42c.87-.06,1.6-.08,2.18-.08h1.31v-3.61h-.57c-1.43,0-2.9,0-4.39.16s-2.89.17-4.29.17-2.9-.06-4.3-.17-2.79-.16-4.06-.16h-.37l-.15.34-18.88,41.66-18.64-41.66-.15-.34H385c-1.27,0-2.53.06-3.74.17s-2.4.16-3.64.16c-1.67,0-3.34-.06-4.95-.17s-3.34-.16-5-.16h-.58v3.61h1.64a9.94,9.94,0,0,1,2.52.31,6.34,6.34,0,0,1,2.06.93,4.7,4.7,0,0,1,1.42,1.68,5.84,5.84,0,0,1,.55,2.65c0,1.62-.08,3.7-.25,6.2s-.4,5.23-.73,8.17l-2.46,22.81c-.16,1.45-.34,2.74-.53,3.81a6.46,6.46,0,0,1-.93,2.53,3.94,3.94,0,0,1-1.84,1.47,10.28,10.28,0,0,1-3.6.61h-1.7v3.65l.61,0c1.6-.11,3.22-.19,4.82-.25s3.27-.08,4.81-.08c1.81,0,3.68,0,5.55.08s3.68.14,5.55.25l.61,0v-3.64h-1.56c-1.08-.05-2.09-.12-3-.2a4.36,4.36,0,0,1-2-.61,3.18,3.18,0,0,1-1.05-1.37,7.57,7.57,0,0,1-.4-2.81l2.63-33.94,19,43.34.15.35h2.71l.16-.34L422,229l2.17,32.58c.05,1.1.08,1.89.08,2.42v1.56a3.1,3.1,0,0,1-.4,1.73,2.42,2.42,0,0,1-1.16.89,8.16,8.16,0,0,1-2.06.45c-.86.08-1.83.15-2.88.2l-.55,0v3.61l.61,0c2.31-.11,4.58-.19,6.74-.25s4.5-.08,6.74-.08c1.92,0,3.91,0,5.92.08s3.91.14,5.84.25l.61,0V268.9l-.55,0C441.91,268.82,440.86,268.75,439.94,268.67Z"/><path class="cls-1" d="M507.92,257.67l-.56-.14-.14.56a17.34,17.34,0,0,1-2.17,5.34,8.1,8.1,0,0,1-3.1,2.8,12.57,12.57,0,0,1-4.46,1.17c-1.78.16-3.91.24-6.34.24-1.28,0-2.54,0-3.74-.08a10.43,10.43,0,0,1-3-.54,4,4,0,0,1-1.95-1.39,4.65,4.65,0,0,1-.7-2.73V244.39H491a7.38,7.38,0,0,1,3.07.52,3.42,3.42,0,0,1,1.55,1.4,7.07,7.07,0,0,1,.79,2.35c.16,1,.3,2.07.4,3.31l.06.64.63-.12L500,252l.48-.1,0-.5c-.16-3.09-.25-6.22-.25-9.3s.09-6.4.25-9.55l0-.61h-3.58l-.05.52a11.56,11.56,0,0,1-1.48,5c-.7,1.13-2.19,1.7-4.42,1.7h-9.17V218.84h10.81a14.24,14.24,0,0,1,4.91.7,6.1,6.1,0,0,1,2.7,1.87,6.67,6.67,0,0,1,1.28,2.83,29,29,0,0,1,.52,3.66l.06.68.66-.18,2.46-.65.45-.12,0-.47c-.11-1.81-.2-3.93-.25-6.29s0-4.46.08-6.17l0-.61h-.61c-1.37,0-2.91,0-4.64,0l-5.37.12c-1.87.06-3.74.1-5.56.13s-3.63,0-5.39,0-3.52,0-5.36,0-3.7-.07-5.52-.13l-5.16-.12c-1.64,0-3.1,0-4.35,0h-.58v3.61h1.72a21.33,21.33,0,0,1,2.15.11,4.48,4.48,0,0,1,1.7.55,3.21,3.21,0,0,1,1.19,1.18,4.65,4.65,0,0,1,.45,2.25V264.7a4.54,4.54,0,0,1-.46,2.21,3.15,3.15,0,0,1-1.18,1.22,4.3,4.3,0,0,1-1.7.54,18.71,18.71,0,0,1-2.15.12H462.9v3.61h.58c1.14,0,2.59,0,4.35,0s3.6-.07,5.57-.13,4-.09,6-.12,4,0,5.85,0,3.79,0,5.81,0,4,.07,6,.12,3.84.1,5.62.13,3.32,0,4.64,0h.48l.08-.48c.38-2.15.8-4.33,1.27-6.49s1-4.32,1.51-6.49l.14-.56-.56-.14Z"/><path class="cls-1" d="M581.31,222.05a30.47,30.47,0,0,0-10.43-5.88,42.72,42.72,0,0,0-13.74-2.08c-1.75,0-3.76,0-6,.16s-4.62.17-7.22.17-5.13-.06-7.54-.17-4.3-.16-5.56-.16h-.57v3.61H532a21.13,21.13,0,0,1,2.14.11,4.53,4.53,0,0,1,1.71.55,3.18,3.18,0,0,1,1.18,1.18,4.54,4.54,0,0,1,.45,2.25V264.7a4.55,4.55,0,0,1-.45,2.21,3.15,3.15,0,0,1-1.18,1.22,4.35,4.35,0,0,1-1.71.54,18.53,18.53,0,0,1-2.14.12h-1.72v3.61h.57l2.27,0c1,0,2-.07,3.25-.13s2.51-.09,3.87-.12,2.82,0,4.13,0c2.74,0,5.49,0,8.17.08s4.92.14,6.69.25c.67,0,1.34.06,2,.06a27.41,27.41,0,0,0,10-1.86,29.61,29.61,0,0,0,16.53-15.74,28.78,28.78,0,0,0,2.46-11.78,29.79,29.79,0,0,0-2.3-11.86A25.62,25.62,0,0,0,581.31,222.05Zm-5,31.55a22.86,22.86,0,0,1-3.91,7.55,18.7,18.7,0,0,1-15.31,7.15,30.65,30.65,0,0,1-3.74-.2,5.72,5.72,0,0,1-2.42-.81,3.41,3.41,0,0,1-1.33-1.69,9.18,9.18,0,0,1-.45-3.2V218.53c.76-.08,1.52-.16,2.25-.22.9-.08,1.82-.12,2.74-.12a35.16,35.16,0,0,1,9.14,1.16,17.65,17.65,0,0,1,7.42,4.09,20.36,20.36,0,0,1,5.05,8.05,39,39,0,0,1,1.89,13.15A30.37,30.37,0,0,1,576.28,253.6Z"/><path class="cls-1" d="M626.76,214.25c-2.27.11-4.46.17-6.52.17s-4.14-.06-6.36-.17-4.17-.16-5.76-.16h-.57v3.61h1.72c.73,0,1.45,0,2.15.11a4.48,4.48,0,0,1,1.7.55,3.11,3.11,0,0,1,1.18,1.18,4.54,4.54,0,0,1,.45,2.25V264.7a4.58,4.58,0,0,1-.45,2.21,3.22,3.22,0,0,1-1.18,1.22,4.3,4.3,0,0,1-1.71.54,18.66,18.66,0,0,1-2.14.12h-1.72v3.61h.57c1.61,0,3.54-.06,5.72-.17s4.35-.16,6.32-.16,4.22.05,6.53.16,4.41.17,6.41.17h.57v-3.61H632a19.2,19.2,0,0,1-2.11-.12,4.39,4.39,0,0,1-1.74-.54,3.13,3.13,0,0,1-1.17-1.22,4.43,4.43,0,0,1-.46-2.21V221.79a4.51,4.51,0,0,1,.45-2.25,3.11,3.11,0,0,1,1.18-1.18,4.56,4.56,0,0,1,1.75-.55c.71-.07,1.42-.11,2.1-.11h1.72v-3.61h-.57C631.19,214.09,629.06,214.14,626.76,214.25Z"/><path class="cls-1" d="M703,255.2l-.5-.07-.14.49a19.19,19.19,0,0,1-5.68,9.63,15.2,15.2,0,0,1-10.47,3.62,19.57,19.57,0,0,1-9.74-2.3,20.81,20.81,0,0,1-6.82-6.1,26.29,26.29,0,0,1-4-8.61,38.81,38.81,0,0,1-1.29-9.93,35.57,35.57,0,0,1,1.29-9.79,22.67,22.67,0,0,1,3.79-7.67,17.59,17.59,0,0,1,6.23-5,19.38,19.38,0,0,1,8.59-1.83,21.91,21.91,0,0,1,7.5,1.12,14.35,14.35,0,0,1,5,3,14.87,14.87,0,0,1,3.24,4.45,34.86,34.86,0,0,1,2,5.52l.13.48.5-.07,2.46-.32.56-.08-.07-.56c-.27-2.27-.46-4.55-.57-6.8s-.14-4.52-.08-6.8V217l-.5-.07a31.36,31.36,0,0,1-5-1.08c-1.48-.47-3-.92-4.43-1.36s-3.1-.83-4.8-1.16a34,34,0,0,0-6.26-.5,37.45,37.45,0,0,0-12.22,2,31.88,31.88,0,0,0-10.29,5.75,27.55,27.55,0,0,0-7.12,9.28,29,29,0,0,0-2.63,12.53,35.49,35.49,0,0,0,2.46,13.7,26.59,26.59,0,0,0,6.86,9.79,28.73,28.73,0,0,0,10.41,5.8,42.43,42.43,0,0,0,12.94,1.92,48,48,0,0,0,19-3.74l.32-.13,0-.34c.21-2.21.47-4.43.77-6.61a65.42,65.42,0,0,1,1.26-6.57l.15-.62-.62-.09Z"/><path class="cls-1" d="M779.52,268.79c-2.45,0-4-1-4.88-2.93-.53-1.23-1-2.58-1.54-4s-1-2.88-1.47-4.3l-15.07-42.83c-.11-.33-.24-.68-.38-1s-.25-.68-.35-1l0-.07,0-.07a1.19,1.19,0,0,0-1-.5,2.8,2.8,0,0,0-.84.2l-.07,0-.06,0a34.54,34.54,0,0,1-3.26,1.77,33.9,33.9,0,0,1-4.06,1.69l-.32.1-.07.34a38.17,38.17,0,0,1-1.29,5c-.59,1.85-1.17,3.55-1.71,5.06l-13.11,37.59a7.1,7.1,0,0,1-2.61,3.69,6.74,6.74,0,0,1-4,1.25h-1.06v3.65l.61,0c1.45-.11,2.94-.19,4.41-.25s3-.08,4.4-.08c1.61,0,3.27,0,4.93.08s3.33.14,4.94.25l.61,0v-3.65H740.7a18.31,18.31,0,0,1-2-.12,10.81,10.81,0,0,1-1.9-.38,3.13,3.13,0,0,1-1.24-.72,1.45,1.45,0,0,1-.4-1.07,7.58,7.58,0,0,1,.53-2.5c.4-1.07.81-2.32,1.24-3.72l2.5-8.11h17.75l3.06,9.11c.44,1.3.82,2.48,1.15,3.51a8.54,8.54,0,0,1,.46,2.2,1,1,0,0,1-.35.81,2.89,2.89,0,0,1-1.09.61,7.58,7.58,0,0,1-1.52.3c-.54.05-1.06.08-1.54.08h-1.48v3.64l.61,0c2-.11,4.12-.19,6.16-.25s4.1-.08,6.09-.08,3.86,0,5.71.08,3.73.14,5.56.25l.61,0v-3.64h-1.07Zm-38.19-22.35,6.9-21,6.83,21Z"/><path class="cls-1" d="M844,257.33h-.43l-.12.41c-.26.9-.59,1.88-1,2.91a12.27,12.27,0,0,1-1.48,2.82,11.24,11.24,0,0,1-7.47,4.18,49.35,49.35,0,0,1-5.49.32c-1.8,0-3.55-.05-5.21-.16a7.58,7.58,0,0,1-3.16-1.1,3.15,3.15,0,0,1-1.21-2.91V221.54a5.25,5.25,0,0,1,.39-2.28,2.31,2.31,0,0,1,.95-1.06,3.62,3.62,0,0,1,1.52-.42c.67-.06,1.39-.08,2.13-.08h2.62v-3.61h-.57c-2.08,0-4.18,0-6.26.16s-4.14.17-6.19.17-4.33-.06-6.44-.17-4.32-.16-6.5-.16h-.57v3.61h1.72a21.28,21.28,0,0,1,2.14.11,4.9,4.9,0,0,1,1.76.55,3.12,3.12,0,0,1,1.21,1.18,4.54,4.54,0,0,1,.45,2.25v42.09a6.59,6.59,0,0,1-.47,2.74,3.09,3.09,0,0,1-1.21,1.39,4.63,4.63,0,0,1-1.76.62,13.3,13.3,0,0,1-2.12.16h-1.72v3.61h.57c3.64,0,7.28-.06,10.83-.17s7.25-.16,10.79-.16,7.17.05,10.79.16,7.19.17,10.83.17h.46l.1-.46c.49-2.35,1-4.69,1.55-6.94s1-4.64,1.48-7l.13-.68H844Z"/><path class="cls-1" d="M927.6,242.13a31.41,31.41,0,0,0-6-3.67c-2.11-1-4.09-2-5.89-3a16.73,16.73,0,0,1-4.4-3.6,7.72,7.72,0,0,1-1.66-5.12c0-3.11.81-5.53,2.42-7.22s4-2.52,7.07-2.52a7.82,7.82,0,0,1,3.55.79,8.89,8.89,0,0,1,2.73,2.19,11.81,11.81,0,0,1,1.87,3.2,15.82,15.82,0,0,1,1,3.71l.07.61.6-.11,2.29-.41.55-.1-.08-.54c-.27-2-.48-3.93-.61-5.86s-.2-3.88-.2-5.78v-.48l-.48-.08c-.66-.11-1.53-.23-2.65-.38s-2.29-.26-3.41-.37S922,213.14,921,213s-1.91-.17-2.52-.17A23.07,23.07,0,0,0,911,214a16.74,16.74,0,0,0-5.94,3.43,16.22,16.22,0,0,0-3.87,5.52,18.88,18.88,0,0,0-1.39,7.4,16.46,16.46,0,0,0,1.88,8.31,18.4,18.4,0,0,0,4.6,5.36,32.24,32.24,0,0,0,5.88,3.67,64.71,64.71,0,0,1,5.72,3.13,16.8,16.8,0,0,1,4.32,3.76,8.58,8.58,0,0,1,1.67,5.49,7.83,7.83,0,0,1-2.74,6.44,10.25,10.25,0,0,1-6.75,2.32,10.79,10.79,0,0,1-8.5-3.69,12.72,12.72,0,0,1-2.35-4,25,25,0,0,1-1.28-4.88l-.09-.6-.6.12-2.29.5-.51.1.06.52c.21,2,.43,4,.69,6.23.23,2,.46,4,.7,6.22l0,.31.28.14a43.64,43.64,0,0,0,6.39,2.65,22.12,22.12,0,0,0,6.89,1.1,25.9,25.9,0,0,0,7.7-1.14,19.4,19.4,0,0,0,6.5-3.37,17,17,0,0,0,4.49-5.55,16.76,16.76,0,0,0,1.7-7.72,16.49,16.49,0,0,0-1.88-8.31A18.68,18.68,0,0,0,927.6,242.13Z"/><path class="cls-1" d="M1004.37,255.2l-.51-.07-.13.49a19.26,19.26,0,0,1-5.68,9.63,15.2,15.2,0,0,1-10.47,3.62,19.61,19.61,0,0,1-9.75-2.3,20.87,20.87,0,0,1-6.81-6.1,26.29,26.29,0,0,1-4-8.61,38.81,38.81,0,0,1-1.29-9.93,35.57,35.57,0,0,1,1.29-9.79,22.49,22.49,0,0,1,3.79-7.67,17.59,17.59,0,0,1,6.23-5,19.38,19.38,0,0,1,8.59-1.83,22,22,0,0,1,7.5,1.12,14.44,14.44,0,0,1,5,3,14.84,14.84,0,0,1,3.23,4.45,34.28,34.28,0,0,1,2.06,5.52l.13.48.5-.07,2.45-.32.57-.08-.07-.56c-.27-2.27-.46-4.55-.57-6.8s-.14-4.52-.08-6.8V217l-.51-.07a31.47,31.47,0,0,1-5-1.08c-1.47-.47-3-.92-4.43-1.36s-3.11-.83-4.81-1.16a33.83,33.83,0,0,0-6.25-.5,37.41,37.41,0,0,0-12.22,2,31.93,31.93,0,0,0-10.3,5.75,27.53,27.53,0,0,0-7.11,9.28,28.87,28.87,0,0,0-2.63,12.53,35.31,35.31,0,0,0,2.46,13.7,26.59,26.59,0,0,0,6.86,9.79,28.69,28.69,0,0,0,10.4,5.8,42.49,42.49,0,0,0,12.95,1.92,48,48,0,0,0,19-3.74l.31-.13,0-.34c.21-2.21.47-4.43.77-6.61a65.42,65.42,0,0,1,1.26-6.57l.15-.62-.63-.09Z"/><path class="cls-1" d="M1087.53,214.25c-2.24.11-4.42.17-6.48.17-2.22,0-4.55-.06-6.93-.17s-4.53-.16-6.34-.16h-.57v3.61h2.13c.74,0,1.47,0,2.19.11a5.71,5.71,0,0,1,1.86.53,2.86,2.86,0,0,1,1.27,1.17,4.36,4.36,0,0,1,.49,2.28v17.36h-28.57V221.79a4.36,4.36,0,0,1,.49-2.28,2.94,2.94,0,0,1,1.27-1.18,6.05,6.05,0,0,1,1.9-.52c.74-.07,1.47-.11,2.15-.11h2.13v-3.61H1054c-1.81,0-3.94,0-6.34.16s-4.71.17-6.93.17c-2.06,0-4.24-.06-6.48-.17s-4.25-.16-5.89-.16h-.57v3.61h1.72a21,21,0,0,1,2.14.11,4.47,4.47,0,0,1,1.71.55,3.21,3.21,0,0,1,1.19,1.18,4.65,4.65,0,0,1,.45,2.25V264.7a4.54,4.54,0,0,1-.46,2.21,3.15,3.15,0,0,1-1.18,1.22,4.3,4.3,0,0,1-1.71.54,18.41,18.41,0,0,1-2.14.12h-1.72v3.61h.57c1.67,0,3.65-.06,5.89-.17s4.45-.16,6.48-.16c2.19,0,4.52.05,6.93.16s4.5.17,6.34.17h.57v-3.61h-2.13a20.2,20.2,0,0,1-2.15-.12,5.66,5.66,0,0,1-1.9-.52,2.92,2.92,0,0,1-1.27-1.17,4.36,4.36,0,0,1-.49-2.28V244.88h28.57V264.7a4.36,4.36,0,0,1-.49,2.28,2.92,2.92,0,0,1-1.27,1.17,5.63,5.63,0,0,1-1.86.52,19.82,19.82,0,0,1-2.19.12h-2.13v3.61h.57c1.83,0,4-.06,6.34-.17s4.74-.16,6.93-.16c2,0,4.21.05,6.48.16s4.22.17,5.89.17h.57v-3.61h-1.72a19.2,19.2,0,0,1-2.11-.12,4.34,4.34,0,0,1-1.74-.54,3.15,3.15,0,0,1-1.18-1.22,4.54,4.54,0,0,1-.46-2.21V221.79a4.53,4.53,0,0,1,.46-2.25,3.11,3.11,0,0,1,1.18-1.18,4.51,4.51,0,0,1,1.74-.55c.72-.07,1.43-.11,2.11-.11H1094v-3.61h-.57C1091.78,214.09,1089.8,214.14,1087.53,214.25Z"/><path class="cls-1" d="M1164.85,220.57a30.39,30.39,0,0,0-10.14-5.71,38.22,38.22,0,0,0-12.47-2,31,31,0,0,0-12.13,2.38,29.92,29.92,0,0,0-16.28,16.27,32.48,32.48,0,0,0,0,24.41,27.84,27.84,0,0,0,6.61,9.44,30.16,30.16,0,0,0,9.93,6.1,34.44,34.44,0,0,0,12.28,2.17,33.45,33.45,0,0,0,12.42-2.3,29.81,29.81,0,0,0,10-6.51,30.26,30.26,0,0,0,6.67-10.1,34,34,0,0,0,2.42-13,28.07,28.07,0,0,0-2.51-12A27.13,27.13,0,0,0,1164.85,220.57Zm-4,31.92a25.38,25.38,0,0,1-2.64,8.17,16,16,0,0,1-5.46,5.93,16.92,16.92,0,0,1-9.31,2.28,15.15,15.15,0,0,1-8.4-2.32,19.77,19.77,0,0,1-6-6.25,30.9,30.9,0,0,1-3.7-9,43.93,43.93,0,0,1-1.25-10.5,39.93,39.93,0,0,1,.88-8.2,23.5,23.5,0,0,1,3-7.47,15.56,15.56,0,0,1,14.17-7.51,15.3,15.3,0,0,1,8.53,2.37,20.85,20.85,0,0,1,6.1,6.13,28.9,28.9,0,0,1,3.65,8.35,35.68,35.68,0,0,1,1.21,9A59.79,59.79,0,0,1,1160.88,252.49Z"/><path class="cls-1" d="M1242.85,220.57a30.58,30.58,0,0,0-10.14-5.71,38.26,38.26,0,0,0-12.47-2,31,31,0,0,0-12.14,2.38,29.95,29.95,0,0,0-16.27,16.27,32.48,32.48,0,0,0,0,24.41,27.81,27.81,0,0,0,6.6,9.44,30.1,30.1,0,0,0,9.94,6.1,34.4,34.4,0,0,0,12.28,2.17,33.4,33.4,0,0,0,12.41-2.3,29.81,29.81,0,0,0,10-6.51,30.29,30.29,0,0,0,6.68-10.1,34.17,34.17,0,0,0,2.42-13,28.22,28.22,0,0,0-2.51-12A27.26,27.26,0,0,0,1242.85,220.57Zm-4,31.92a25.38,25.38,0,0,1-2.64,8.17,16,16,0,0,1-5.45,5.93,17,17,0,0,1-9.31,2.28,15.16,15.16,0,0,1-8.41-2.32,19.88,19.88,0,0,1-6-6.25,30.89,30.89,0,0,1-3.69-9,43.43,43.43,0,0,1-1.26-10.5,39.27,39.27,0,0,1,.89-8.2,23.27,23.27,0,0,1,3-7.47,15.56,15.56,0,0,1,14.17-7.51,15.29,15.29,0,0,1,8.52,2.37,20.73,20.73,0,0,1,6.1,6.13,28.9,28.9,0,0,1,3.65,8.35,35.24,35.24,0,0,1,1.21,9A59.79,59.79,0,0,1,1238.87,252.49Z"/><path class="cls-1" d="M1310.94,257.33h-.43l-.12.41c-.27.9-.59,1.88-1,2.91a11.93,11.93,0,0,1-1.49,2.82,10.69,10.69,0,0,1-3,2.66,10.85,10.85,0,0,1-4.43,1.52,49.52,49.52,0,0,1-5.5.32c-1.79,0-3.54-.05-5.2-.16a7.62,7.62,0,0,1-3.17-1.1,3.17,3.17,0,0,1-1.21-2.91V221.54a5.41,5.41,0,0,1,.39-2.28,2.38,2.38,0,0,1,1-1.06,3.62,3.62,0,0,1,1.52-.42c.67-.06,1.39-.08,2.13-.08H1293v-3.61h-.58c-2.07,0-4.18,0-6.25.16s-4.14.17-6.19.17-4.33-.06-6.44-.17-4.32-.16-6.5-.16h-.58v3.61h1.73a21.28,21.28,0,0,1,2.14.11,5,5,0,0,1,1.76.55,3.12,3.12,0,0,1,1.21,1.18,4.54,4.54,0,0,1,.45,2.25v42.09a6.59,6.59,0,0,1-.47,2.74,3.15,3.15,0,0,1-1.21,1.39,4.69,4.69,0,0,1-1.76.62,13.3,13.3,0,0,1-2.12.16h-1.73v3.61h.58c3.63,0,7.28-.06,10.82-.17s7.26-.16,10.8-.16,7.16.05,10.79.16,7.19.17,10.83.17h.46l.1-.46c.49-2.35,1-4.69,1.55-6.94s1-4.63,1.48-7l.13-.68h-3.07Z"/><path class="cls-1" d="M730.52,158.2,728.23,155a8.8,8.8,0,0,1-2.28,1.58,6,6,0,0,1-2.64.71,4.3,4.3,0,0,1-4.57-3.7,40.89,40.89,0,0,1-.89-9.32V108.42q0-11.61-6.06-17.5T694.11,85a36.69,36.69,0,0,0-5.1.35,15.4,15.4,0,0,0-5.45,2.11q-5.1,3-9.85,5.45l-9.15,4.75a20.07,20.07,0,0,0-6.86,5.9,14.49,14.49,0,0,0-2.81,8.88c0,2.7,1.11,4,3.34,4a16,16,0,0,0,3.08-.44,21.25,21.25,0,0,0,4.05-1.32,14.61,14.61,0,0,0,3.6-2.19,4.54,4.54,0,0,0,1.76-3.08q.53-7.4,3.16-9.94c1.77-1.7,5.22-2.55,10.38-2.55a15.18,15.18,0,0,1,9.94,3.25q4,3.26,4,11v9.84l-21.81,7.57c-3.16,1.17-6.16,2.34-9,3.52a33.8,33.8,0,0,0-7.56,4.3,19.42,19.42,0,0,0-5.28,6.07,17.69,17.69,0,0,0-1.94,8.62q0,8.79,5.63,13.45a20.56,20.56,0,0,0,13.55,4.66,26.36,26.36,0,0,0,14.77-4.13,80.52,80.52,0,0,0,12.14-9.76,17.39,17.39,0,0,0,3.78,10c2.16,2.59,5.36,3.87,9.58,3.87a16.69,16.69,0,0,0,10.38-3.07A49.74,49.74,0,0,0,730.52,158.2ZM698.16,148a30.55,30.55,0,0,1-2,2.64,20.19,20.19,0,0,1-3.26,3.08,19.89,19.89,0,0,1-4.4,2.55,13.76,13.76,0,0,1-5.45,1.06q-10.72,0-10.73-11.44a11.42,11.42,0,0,1,2.64-7.65,22.43,22.43,0,0,1,6.6-5.18,44.54,44.54,0,0,1,8.44-3.43c3-.89,5.71-1.74,8.18-2.56Z"/><path class="cls-1" d="M786.57,125a48.86,48.86,0,0,0-8.7-5.28q-4.67-2.19-8.71-4.57a27.53,27.53,0,0,1-6.77-5.45,11.4,11.4,0,0,1-2.72-7.83,9.13,9.13,0,0,1,3.69-7.82,13.57,13.57,0,0,1,8.27-2.73q8.45,0,11.78,5a26.58,26.58,0,0,1,4.05,12.4l4.92-.88a80.93,80.93,0,0,1-.18-9.23q.18-4.65.53-9.41a81.31,81.31,0,0,0-9.93-3.08A47.35,47.35,0,0,0,772,85a34.64,34.64,0,0,0-11.17,1.76,26.66,26.66,0,0,0-9,5A22.64,22.64,0,0,0,746,99.72a25,25,0,0,0-2.11,10.46,22.14,22.14,0,0,0,2.64,11.25,27.6,27.6,0,0,0,6.51,7.75,43.49,43.49,0,0,0,8.53,5.45q4.65,2.28,8.52,4.57a29.28,29.28,0,0,1,6.51,5.1,9.88,9.88,0,0,1,2.64,7q0,5.82-4,8.71a15.29,15.29,0,0,1-9.15,2.9,14.91,14.91,0,0,1-7-1.58,15.93,15.93,0,0,1-5.19-4.22,23.25,23.25,0,0,1-3.43-6,25.5,25.5,0,0,1-1.67-7l-4.92,1.06,1.58,19.52q4.58,1.59,9.5,3.08a38.63,38.63,0,0,0,11.26,1.49,42.37,42.37,0,0,0,10.81-1.4,29.27,29.27,0,0,0,9.58-4.4,22.32,22.32,0,0,0,6.87-8,25.68,25.68,0,0,0,2.63-12.05,20.3,20.3,0,0,0-2.72-11A28,28,0,0,0,786.57,125Z"/><path class="cls-1" d="M854.85,125a48.94,48.94,0,0,0-8.71-5.28c-3.1-1.46-6-3-8.7-4.57a27.4,27.4,0,0,1-6.78-5.45,11.4,11.4,0,0,1-2.72-7.83,9.13,9.13,0,0,1,3.69-7.82,13.57,13.57,0,0,1,8.27-2.73q8.45,0,11.78,5a26.58,26.58,0,0,1,4.05,12.4l4.92-.88a80.94,80.94,0,0,1-.17-9.23c.11-3.1.29-6.24.52-9.41a81.31,81.31,0,0,0-9.93-3.08A47.28,47.28,0,0,0,840.25,85a34.64,34.64,0,0,0-11.17,1.76,26.66,26.66,0,0,0-9,5,22.64,22.64,0,0,0-5.89,7.92,25,25,0,0,0-2.11,10.46,22.14,22.14,0,0,0,2.64,11.25,27.93,27.93,0,0,0,6.51,7.75,43.49,43.49,0,0,0,8.53,5.45q4.65,2.28,8.53,4.57a29,29,0,0,1,6.5,5.1,9.88,9.88,0,0,1,2.64,7q0,5.82-4,8.71a15.29,15.29,0,0,1-9.15,2.9,14.94,14.94,0,0,1-6.95-1.58,15.79,15.79,0,0,1-5.18-4.22,23,23,0,0,1-3.43-6,25.14,25.14,0,0,1-1.67-7l-4.93,1.06,1.59,19.52q4.56,1.59,9.49,3.08a38.68,38.68,0,0,0,11.26,1.49,42.31,42.31,0,0,0,10.81-1.4,29.32,29.32,0,0,0,9.59-4.4,22.39,22.39,0,0,0,6.86-8,25.68,25.68,0,0,0,2.64-12.05,20.3,20.3,0,0,0-2.73-11A28.08,28.08,0,0,0,854.85,125Z"/><path class="cls-1" d="M1002.56,153.45q-9.07,8.09-23.31,8.09-12.48,0-21.54-5.11a45.92,45.92,0,0,1-15-13.45,57.53,57.53,0,0,1-8.79-18.9,83.49,83.49,0,0,1-2.82-21.64,76.78,76.78,0,0,1,2.82-21.37,49.43,49.43,0,0,1,8.35-16.88A38.83,38.83,0,0,1,956,53a42.6,42.6,0,0,1,19-4,48.17,48.17,0,0,1,16.53,2.46,32.24,32.24,0,0,1,11.17,6.68,32.88,32.88,0,0,1,7.21,9.94,73.41,73.41,0,0,1,4.49,12l5.28-.71q-.88-7.38-1.24-14.68T1018.3,50a70.26,70.26,0,0,1-10.91-2.37q-4.74-1.5-9.49-2.91t-10.2-2.46a71.05,71.05,0,0,0-13.19-1,79,79,0,0,0-25.86,4.22,67.25,67.25,0,0,0-21.72,12.13A57.49,57.49,0,0,0,912,77.11a60.49,60.49,0,0,0-5.54,26.39q0,16.53,5.19,28.93A55.94,55.94,0,0,0,926.05,153,60.24,60.24,0,0,0,948,165.23a89.55,89.55,0,0,0,27.43,4A102.46,102.46,0,0,0,997.72,167a101.61,101.61,0,0,0,17.94-5.63q.71-7.2,1.67-14.25a138.6,138.6,0,0,1,2.73-14.24l-4.93-.7Q1011.61,145.36,1002.56,153.45Z"/><path class="cls-1" d="M1122.91,166.64v-5.28h-2.11a26.7,26.7,0,0,1-5.89-.61c-1.82-.42-2.73-1.85-2.73-4.32V107.72q0-12.5-6.16-17.59T1090.37,85a24.4,24.4,0,0,0-7.74,1.23,40.71,40.71,0,0,0-7.12,3.17,60.5,60.5,0,0,0-6.51,4.22q-3.07,2.28-6.07,4.22v-64L1061,32.27q-6.51,3-14.34,6a107.27,107.27,0,0,1-13.8,4.4v4.22l5.8,2.29q3,1.23,3.78,2.64a9.26,9.26,0,0,1,.8,4.39v99.73q0,4.05-3.08,4.75a33.1,33.1,0,0,1-7.3.7v5.28q5.1-.34,10.38-.53c3.51-.12,7.09-.18,10.72-.18,3.4,0,6.75.06,10,.18s6.62.3,10,.53v-5.28h-2.64a29.57,29.57,0,0,1-5.9-.53q-2.55-.53-2.55-3.69V104a59.9,59.9,0,0,1,7.4-4,20.81,20.81,0,0,1,8.79-2,13.85,13.85,0,0,1,9.67,3.34q3.69,3.35,3.7,11.43v44a3.62,3.62,0,0,1-.88,2.64,5.72,5.72,0,0,1-2.12,1.32,10,10,0,0,1-2.72.52c-1,.06-2,.09-2.9.09h-1.76v5.28q5.27-.34,10.46-.53t10.47-.18q5.1,0,9.93.18T1122.91,166.64Z"/><path class="cls-1" d="M1203.35,166.2a49.34,49.34,0,0,0,8.09-8l-2.28-3.17a8.7,8.7,0,0,1-2.29,1.58,6,6,0,0,1-2.64.71,4.3,4.3,0,0,1-4.57-3.7,41,41,0,0,1-.88-9.32V108.42q0-11.61-6.07-17.5T1175,85a36.69,36.69,0,0,0-5.1.35,15.37,15.37,0,0,0-5.46,2.11q-5.1,3-9.85,5.45l-9.14,4.75a19.89,19.89,0,0,0-6.86,5.9,14.43,14.43,0,0,0-2.81,8.88c0,2.7,1.11,4,3.34,4a16,16,0,0,0,3.07-.44,21.25,21.25,0,0,0,4-1.32,14.61,14.61,0,0,0,3.6-2.19,4.5,4.5,0,0,0,1.76-3.08q.54-7.4,3.17-9.94T1165.19,97a15.15,15.15,0,0,1,9.93,3.25q4,3.26,4,11v9.84l-21.81,7.57q-4.74,1.75-9,3.52a34.25,34.25,0,0,0-7.56,4.3,19.42,19.42,0,0,0-5.28,6.07,17.69,17.69,0,0,0-1.93,8.62q0,8.79,5.63,13.45a20.51,20.51,0,0,0,13.54,4.66,26.36,26.36,0,0,0,14.77-4.13,80,80,0,0,0,12.14-9.76,17.39,17.39,0,0,0,3.78,10c2.17,2.59,5.36,3.87,9.59,3.87A16.66,16.66,0,0,0,1203.35,166.2ZM1179.08,148a30.55,30.55,0,0,1-2,2.64,20.19,20.19,0,0,1-3.26,3.08,19.81,19.81,0,0,1-4.39,2.55,13.81,13.81,0,0,1-5.46,1.06q-10.73,0-10.72-11.44a11.41,11.41,0,0,1,2.63-7.65,22.56,22.56,0,0,1,6.6-5.18,44.54,44.54,0,0,1,8.44-3.43q4.49-1.34,8.18-2.56Z"/><path class="cls-1" d="M1254.11,160.83q-2.55-.53-2.55-3.69V104a59.7,59.7,0,0,1,7.39-4,20.85,20.85,0,0,1,8.8-2,13.83,13.83,0,0,1,9.66,3.34q3.71,3.35,3.7,11.43v44a3.58,3.58,0,0,1-.88,2.64,5.68,5.68,0,0,1-2.11,1.32,10,10,0,0,1-2.73.52c-1,.06-2,.09-2.9.09h-1.76v5.28q5.28-.34,10.47-.53t10.46-.18q5.1,0,9.94.18t9.94.53v-5.28h-2.11a26.85,26.85,0,0,1-5.9-.61c-1.82-.42-2.72-1.85-2.72-4.32V107.72q0-12.5-6.16-17.59T1279,85a24.31,24.31,0,0,0-7.74,1.23,40.38,40.38,0,0,0-7.12,3.17,60.5,60.5,0,0,0-6.51,4.22c-2.05,1.52-4.08,2.93-6.07,4.22V86.61L1249.63,85q-3,1.23-6.07,2.72a57.06,57.06,0,0,1-6.07,2.55q-3.51,1.24-7.74,2.64c-2.81,1-5.57,1.76-8.26,2.47v4.22a24.68,24.68,0,0,1,3.08.88,27.83,27.83,0,0,0,3.07.88c2,.59,3.19,1.2,3.61,1.84a5.93,5.93,0,0,1,.61,3.08v49.77c0,2.7-.88,4.25-2.64,4.67a29.16,29.16,0,0,1-6.5.61h-1.23v5.28q5.1-.34,10.37-.53t10.73-.18q5.1,0,10,.18t10,.53v-5.28H1260A29.39,29.39,0,0,1,1254.11,160.83Z"/><path class="cls-1" d="M627.38,159.78a7.18,7.18,0,0,1-2.82-2.91,14.84,14.84,0,0,1-1.31-5.2L616.57,71c-.24-2-.48-4.2-.71-6.6a48.86,48.86,0,0,1-.17-7.14,6.21,6.21,0,0,1,2-4.58A12.26,12.26,0,0,1,622,50.3a21.21,21.21,0,0,1,5.28-1c1.88-.12,3.46-.18,4.75-.18h1.58V43.87c-3,0-6.15.12-9.32.36s-6.27.35-9.32.35-6.27-.12-9.32-.35-5.92-.36-8.62-.36l-41.68,92-41.16-92c-9.66,0-19.83,1.25-37.29,1.25-19.81,0-30.23-1.25-39.93-1.25v5.28h3.52a39.09,39.09,0,0,1,4.49.26,9.91,9.91,0,0,1,4,1.41,8,8,0,0,1,3,3.78A19.2,19.2,0,0,1,453.16,62v60q0,17.78-8,28.15t-25.41,10.37q-9.51,0-15.83-2.72A25.93,25.93,0,0,1,393.63,150a30.53,30.53,0,0,1-5.63-12,66.05,66.05,0,0,1-1.67-15.39V62a17.93,17.93,0,0,1,1.23-7.39,8.29,8.29,0,0,1,3.17-3.78,11,11,0,0,1,4.48-1.41c1.7-.17,3.43-.26,5.19-.26h2.11V43.87q-5.28,0-11.87.36t-14.51.35q-8.44,0-15.39-.35t-12.58-.36v5.28h2.12a49.73,49.73,0,0,1,5.1.26,10.17,10.17,0,0,1,4.3,1.41,8,8,0,0,1,3,3.78A19,19,0,0,1,363.82,62v63.49q0,23.58,13.63,33.68t39,10.11a69.53,69.53,0,0,0,18.47-2.37,36,36,0,0,0,15-8.27A39.82,39.82,0,0,0,460,142.89q3.69-9.84,3.7-24.8V62a20.69,20.69,0,0,1,1-7.39,8.05,8.05,0,0,1,2.73-3.78,8.24,8.24,0,0,1,2.65-1.2l.18,0a8.17,8.17,0,0,1,.86-.17l.26,0a36.36,36.36,0,0,1,12.88.33l.59.17a15.14,15.14,0,0,1,3.7,1.48l.13.07c.35.21.68.42,1,.65a11.18,11.18,0,0,1,3.42,4,13.47,13.47,0,0,1,1.32,6.25q0,5.28-.52,13.39t-1.59,17.62l-5.27,49q-.54,4.77-1.14,8.29a15.55,15.55,0,0,1-2.2,5.9,10,10,0,0,1-4.49,3.61,23.7,23.7,0,0,1-8.18,1.41h-2.46v5.27q5.1-.34,10.38-.52t10.38-.18q6,0,11.95.18t12,.52v-5.27h-2.11q-3.69-.18-6.5-.44a10.57,10.57,0,0,1-4.75-1.5,7.83,7.83,0,0,1-2.73-3.52,17.33,17.33,0,0,1-1-6.5l6-77.22h.36l42.56,96.91h4.22l44.85-98.84h.35l4.93,74.22c.11,2.35.17,4.11.17,5.28v3.34a7.82,7.82,0,0,1-1.06,4.4,6.34,6.34,0,0,1-3.07,2.37,17.9,17.9,0,0,1-4.75,1.06q-2.73.26-6.25.44v5.27q7.4-.34,14.51-.52t14.51-.18q6.33,0,12.76.18t12.57.52v-5.27q-3.87-.18-6.77-.44A11.77,11.77,0,0,1,627.38,159.78Z"/><path class="cls-1" d="M42.55,261.11c-27-14.82-2.28-48.53,11.57-65.69,32.41-40.16,86.51-86,86.51-104.71,0-9-10.71-11.62-21.77-11.62C95.67,79.09,31.1,107,31.1,148.25c0,15.11,9.63,23.54,27.83,27.61-13.76,7.54-33.25,3-40.94-10V273.63H119.16V236.28C104.17,248.1,65.31,273.63,42.55,261.11Z"/><path class="cls-2" d="M155,77.86l-.16.18.45.23,2.46,1.4a.57.57,0,0,1,.13.08c7.26,4.69,10.19,10.93,10.19,16.19,0,4.7-2.41,11.33-7.59,18.48C149.23,130,79.41,207.87,66.85,224.31c-23.76,31.1,12.46,38.51,66.26-10.21,37.8-34.22,108.38-125.93,108.38-125.93h31.83S220,161,198.79,198.89c-13.16,23.57-26.19,59.44,1.79,59.07,18.26-.25,37.16-25.29,38.16-54.49a21.12,21.12,0,0,1,8.92,17.14c.3,19.22-20.39,45.78-46.93,46.47a44,44,0,0,1-13.77-2v8.55H288.13v-241H194.48Z"/><path class="cls-1" d="M127.78,72.69a68.35,68.35,0,0,1,21.45,3L111.65,32.58H18V141.24C28.33,116.91,63.37,72.69,127.78,72.69Z"/></svg>