<svg xmlns="http://www.w3.org/2000/svg" xmlns:xlink="http://www.w3.org/1999/xlink" viewBox="0 0 738.04 740.31"><defs><style>.cls-1,.cls-3{stroke:#3061ad;}.cls-1{stroke-miterlimit:35.59;stroke-width:6.12px;fill-rule:evenodd;fill:url(#radial-gradient);}.cls-2{fill:url(#radial-gradient-2);}.cls-3{fill:none;stroke-miterlimit:10;stroke-width:8px;}.cls-4{fill:#fff;}</style><radialGradient id="radial-gradient" cx="-152.69" cy="261.06" r="250.61" gradientTransform="translate(1518.37 -1216.63) scale(8.9 5.34)" gradientUnits="userSpaceOnUse"><stop offset="0" stop-color="#d3eef7"/><stop offset="0.02" stop-color="#b3e5f6"/><stop offset="0.07" stop-color="#7ad6f3"/><stop offset="0.11" stop-color="#51caf1"/><stop offset="0.14" stop-color="#37c4f0"/><stop offset="0.16" stop-color="#2ec1f0"/><stop offset="0.24" stop-color="#2fa4dc"/><stop offset="0.33" stop-color="#2f8ccb"/><stop offset="0.43" stop-color="#3079bd"/><stop offset="0.55" stop-color="#306bb4"/><stop offset="0.71" stop-color="#3063af"/><stop offset="1" stop-color="#3061ad"/></radialGradient><radialGradient id="radial-gradient-2" cx="-160.48" cy="253.19" r="280.25" gradientTransform="translate(1540.61 -2158.3) scale(8.99 8.94)" gradientUnits="userSpaceOnUse"><stop offset="0" stop-color="#1f78be"/><stop offset="0.04" stop-color="#2070b5"/><stop offset="0.2" stop-color="#225596"/><stop offset="0.37" stop-color="#23407f"/><stop offset="0.55" stop-color="#24326e"/><stop offset="0.75" stop-color="#252964"/><stop offset="1" stop-color="#252661"/></radialGradient></defs><g id="Layer_2" data-name="Layer 2"><g id="Layer_1-2" data-name="Layer 1"><g id="g4211"><path id="path2335" class="cls-1" d="M734.24,371.66c0,201.81-163.78,365.59-365.59,365.59S3.06,573.47,3.06,371.66,166.84,6.07,368.65,6.07,734.24,169.55,734.24,371.66Z"/><path id="path1086" class="cls-2" d="M336.71,727.76c-22.75-2.7-49.4-7.79-50.9-9.88-.9-1.2,3-3.3,8.39-4.2,12.87-2.39,12.87-2.39,32.63,0,11.08,1.5,17.67.9,18.87-1.19,1.49-2.4,5.69-1.8,13.77,1.49,10.78,4.2,18.86,4.5,32.94.9,2.69-.6,4.19.6,3.59,3-.6,3,.6,3.29,4.49,1.79,3-1.19,9.28-2.09,14.37-1.79l9,.6-7.18-5.09-7.19-5.09,6.89-2.7c4.49-1.5,8.38-1.2,11.08.9,5.39,4.49,42.22,1.2,56.89-4.79,6-2.4,15-4.49,20.06-4.49a40,40,0,0,0,16.77-4.49c8.38-4.8,15-5.69,15-2.1,0,2.69-29.35,15.87-55.4,24.55-35.63,11.38-100.3,17.37-144,12.58Zm84-48.21c-10.78-4.49-16.77-15-12-21.26,2.1-2.69,1.8-3.89-1.2-3.89s-3-.6-.59-2.4c1.79-1.19,4.49-9,5.39-17.06s3.89-21,6-28.45,3.9-16.17,3.9-19.46c0-6.29,2.69-26.35,5.68-42.82,2.4-13.17-3.59-23.65-17.66-30.84-6.29-3.29-12.28-8.08-13.18-11.08-4.49-13.77-15-34.73-23.05-46.41-8.09-11.37-2.7-35.63,10.78-47.6,8.08-7.19,9.28-10.18,8.68-19.77-.6-6-2.09-11.67-3.29-12.57a5.57,5.57,0,0,1-2.7-4.49c0-1.8-1.79-3-3.89-3a3,3,0,0,0-3,3.6c.89,4.79-17.07,1.49-22.76-4.2-2.1-2.09-5.09-3.89-6.59-3.89s-2.69-1.79-2.69-3.89c0-6.29-12.58-16.17-23.95-18.56-5.69-1.2-13.48-4.8-17.07-8.09-4.49-4.19-11.68-6.29-21.86-6.89-15.57-.89-31.74-8.38-28.44-13.47.89-1.5-2.4-3-7.19-3-11.38,0-14.67-5.09-7.49-10.78,3-2.4,4.2-3.9,2.4-3.6-2.7.6-14.37-11.07-22.76-23.05-1.19-1.8-6.28-7.79-11.08-13.47l-9-10.48,4.79,9.58c2.7,5.39,6,9.58,7.49,9.58s1.79,1.79,1.2,4.19c-.9,2.4-.3,5.09,1.49,6.29a8.83,8.83,0,0,1,3.3,6.59c0,4.19-.9,4.19-6-.6-3.3-3-6-7.19-6-9.59s-2.1-4.79-4.49-6c-2.7-1.2-3.89-3.9-3-7.19.9-3,.3-6.29-1.49-7.19-1.8-1.19-3-4.19-3-7.18s-3.29-9-7.18-13.18c-11.08-12-14.08-31.14-7.49-47.3,6-15,7.19-26.65,2.7-26.65-1.8,0-2.4-3-1.2-7.19.9-3.89.3-8.08-1.5-9.28s-3.29,0-3.29,2.69-1.5,4.79-3,4.79-3-3-2.39-6.58c1.2-12.88-.3-17.37-5.69-17.37-6.89,0-27.85,10.78-31.14,15.57-1.2,2.1-3.29,3.89-4.79,3.89-1.2,0-8.68,4.2-16.17,9.58-7.78,5.39-14.67,8.69-15.57,7.79s2.7-4.79,7.79-8.08c5.39-3.6,10.18-9.29,10.77-12.28s6-10.18,12-15.57,8.39-8.68,5.39-7.79c-8.68,3-4.49-5.68,4.79-10.18,4.19-2.09,8.39-6.88,9.58-10.48,2.4-9,23.06-23,33.84-23.35,4.79,0,16.47-1.8,26.35-3.89s23.05-3.6,29-3c9,.6,11.08-.3,10.48-4.79-.3-4.49-1.5-4.79-5.69-2.09-3,1.79-6.29,2.39-7.18,1.19-3-3,4.49-11.07,9.88-11.07,2.69,0,3.89-1.8,2.69-4.2-1.2-2.69,2.1-6,9.28-9,6-2.69,8.39-4.19,5.09-3.59-7.78,1.79-25.75,8.08-32,11.38a28.94,28.94,0,0,1-11.37,2.69c-3.3,0-6,1.2-6,2.7,0,2.69-21.26,11.07-35.93,14.37-6.59,1.49-6,.6,3-5.69,32.34-22.16,61.38-34.43,105.7-44.91,22.75-5.39,37.12-7.43,81.74-7.43,53.59,0,93.72,5.63,84.74,11-2.1,1.5-5.1,1.8-6.59.9s-16.47-1.8-33.54-2.4c-26.05-.6-30.84-.3-29.34,3.3a4.55,4.55,0,0,0,5.39,3c5.09-2.1,29.34,10.78,44.91,23.35,7.19,5.69,14.07,10.48,15.27,10.48,1.5,0,4.19,2.7,6.29,6.29,3.29,5.39,3,6.29-2.1,7.79-7.78,2.09-9.88,14.07-4.79,28.14,2.1,6.29,3.3,12,2.4,12.58-2.7,2.69-20.36-8.09-32-19.46-6.29-6.29-12.87-10.48-14.67-9.59-1.8,1.2-2.4.6-1.2-1.19s0-4.79-2.69-6.89c-2.4-2.1-3.9-5.69-3-7.79.9-2.39-.3-3.89-3-3.89a7.58,7.58,0,0,1-6.29-4.49c-.9-2.39-3-4.49-4.79-4.49s-5.39-2.1-8.08-4.49c-3.6-3.3-7.19-3.59-13.78-1.8-4.79,1.5-7.18,2.7-4.79,3,6.29.3,27.85,23.95,26.95,29.64-.3,2.69,0,6.59,1.2,8.38s.6,5.09-.6,7.49c-2.4,3.59-4.49,3.29-15.57-2.4-7.19-3.59-15-6.88-18-6.58-6.88,0-9.88-5.69-4.49-7.79A12.82,12.82,0,0,0,353,74.72c1.2-3.29.3-3.89-4.19-2.69-4.49,1.49-6,.6-6-3.3,0-2.69-.9-4.19-2.1-3.29-1.19,1.2-3.29.6-5.39-.6-2.39-1.79-3.29.6-3.29,7.79Q332,83,337.42,86.1c3,1.5,4.49,3.89,3.89,5.09s2.4,1.8,6.59,1.2c5.39-.9,12.58,1.79,21.56,7.78,10.48,7.19,13.77,8.09,14.37,4.79,1.5-6.58,4.19-5.39,17.07,7.49,6.58,6.59,13.17,11.68,14.67,11.08,3.29-1.2,11.08,6.29,18.26,17.06,5.09,7.79,12.28,11.08,8.69,3.9-1.2-2.1.89-.6,4.19,3.29s6.29,9.28,6.29,12c0,4.19-.3,4.19-3,.3s-3-3.9-3.29,0c-.3,3-.9,3.29-1.8.6-2.39-6-15.27-4.79-15,1.49.3,3.3-2.1,5.69-6.29,6.29-3.59.6-6.58,2.4-6.58,4.19,0,2.1-4.5,2.7-12,1.5-9.88-1.2-12-.6-12,3.29,0,2.7-2.69,8.39-6,12.58s-6,9.28-6,11.68c0,3.59-.9,3.59-5.39,0-4.8-3.9-4.8-3.6,0,4.19,6,9.28,4.79,12.27-7.49,22.75-8.38,7.19-11.08,19.47-5.09,23.06,4.49,2.69,9.28,16.17,7.19,19.76-2.7,4.19-10.48-3.29-15-14.37-3-6.89-6.58-9.88-13.47-11.38-14.67-3-20.66-2.39-20.66,2.4,0,2.69-2.09,3.59-6,2.69-6.88-1.8-25.15,8.68-31.44,18-5.69,8.38-5.69,18.26.3,30.54,5.39,11.67,9.88,13.77,22.16,11.38,6.29-1.2,9.58-3.9,10.78-9,.9-3.89,3.29-7.18,5.09-7.18a58.72,58.72,0,0,0,8.68-1.2c7.79-1.5,9,3.29,3.6,13.77-2.7,5.09-4.2,10.18-3,11.08s0,3.59-1.8,5.69c-3,3.29-1.49,3.89,7.79,3,18.56-2.09,22.16,0,22.16,12.88-.3,21.56,6.58,30.54,18.56,24,3.89-2.09,7.49-2.09,11.68,0,7.78,4.19,8.08,4.19,14.67-3,3-3.3,8.38-6.59,11.38-7.19a81.64,81.64,0,0,0,11.38-3.29c4.19-1.5,5.09-1.2,3.59,1.2-1.2,1.79-.6,3.59.9,3.59s3.29-1.2,3.29-2.7,3.59-.89,8.09,1.2c4.49,2.4,9.28,3.3,10.77,2.4s2.1-.3.9,1.2c-1.2,1.79,1.2,3.89,4.79,4.79,9.29,2.69,11.68,2.39,9.88-.9-.89-1.5,0-3.89,1.8-5.09,2.1-1.2,2.7-.9,1.5,1.2-2.1,3.29,2.09,4.79,12.57,4.19,2.1,0,3.9,2.09,3.9,4.79,0,6.88,20.36,23.05,32,25.15,11.68,2.39,21.86,10.48,21.86,17.67,0,3,1.5,6,3.29,7.18,2.1,1.2,1.5,4.19-2.09,8.38-3,3.6-3.29,4.8-1.2,2.7,3.29-3,7.79-1.8,23.36,6.59C577,439.42,588,444.21,591,444.21s7.78,2.69,10.78,5.69,7.18,5.09,9.28,4.19c3-1.2,4.19.9,4.19,7.48,0,6.29-3.89,13.78-13.47,24.56-7.49,8.68-14.37,19.76-15.27,24.85-3,14.07-16.47,31.14-27.55,35-5.39,1.8-9.58,5.09-9.58,7.49s-3.59,6.58-8.38,9.58a59,59,0,0,0-13.48,12c-14.67,18.27-30.84,30.84-37.43,29.65-5.09-.9-6.58,0-6,3.89.89,5.39-5.39,15-10.18,15-1.5,0-10.18,6.29-19.17,14.07q-16.17,13.92-12.57,16.17c2.39,1.5,1.49,4.19-3.6,8.38-6.88,5.69-6.88,6.29-2.09,10.18,3,2.4,5.39,4.8,5.39,5.69-.9,5.09-12.28,5.09-21.26,1.5Zm-12-515c-2.09-.9-4.79-.9-5.69.3-.9.9.9,1.79,3.9,1.49,3.59,0,4.19-.89,1.79-1.79ZM429,151.07c0-1.19-1.79-1.49-4.49-.29-2.69.89-4.49,0-4.49-2.4,0-3.29-.6-3.29-2.69.3-1.5,2.69-1.5,7.19.59,11.38l3.3,7.18,3.89-6.88c2.1-4.2,3.89-8.09,3.89-9.29Zm-95.81,8.39c0-.6-3-3-6.89-5.69-6-3.89-7.48-3.89-13.17.6-6,4.79-5.69,5.09,6.88,5.69C327.54,160.36,333.23,160.06,333.23,159.46ZM326,143.89c-5.39-3.89-5.39-4.19-.3-6.29,3-1.2,10.48-.6,16.77.9,9.58,2.69,11.08,2.39,9.58-1.5-1.2-3-.6-3.59,1.8-2.39,1.79,1.19,6,.89,8.68-.9,4.79-2.7,4.79-3-1.2-3.3-4.79,0-6.28-1.79-6.28-8.08,0-4.49-2.4-9.88-5.69-12.28-3-2.39-5.39-4.79-4.79-5.39,2.09-3.89.3-7.48-3.6-7.48-2.39,0-4.49-1.5-4.49-3.29s-1.79-2.7-3.59-1.8-6,0-9-1.5c-4.2-2.09-6.89-.6-12.88,6.29-4.19,5.09-8.68,8.38-10.18,7.78-1.2-.89-3.29.6-4.19,3s-.6,4.19.3,3.89c1.2-.3,6,3.29,10.48,7.79,5.39,5.39,10.18,7.78,13.17,6.58,6.29-2.39,16.47.9,14.37,4.49-.89,1.5-3.59,2.7-6.28,2.7s-3.6-1.5-2.4-3.59c1.5-2.1.9-2.7-1.5-1.2-1.79,1.2-2.69,3.29-1.79,5.09.9,1.5.3,2.69-1.5,2.69a3.07,3.07,0,0,1-3.29-3c0-5.39-11.38-3.29-12.58,2.39-1.5,6.29,5.39,14.38,8.39,9.59,1.19-2.1,3-2.1,5.68,0,2.1,1.79,4.5,2.39,5.69,1.19s2.1-.3,2.1,2.1.9,3,2.39,1.8c.9-.9-.59-3.9-3.89-6.29ZM348.2,128a6.6,6.6,0,0,1,3-4.79c1.8-1.2,2.1.3,1.2,2.69C350.3,131.31,348.2,132.21,348.2,128Zm-37.43-7.79c-3.29-2.39-4.19-4.49-2.39-4.49,5.69-.3,12.87,3.3,12.87,6.29C321.25,125.92,317.36,125.32,310.77,120.23Zm100.31,29.35c0-.3-2.7-2.1-5.69-3.6-4.19-2.09-6.59-2.09-8.68.6-2.4,2.7-.9,3.6,5.68,3.6,4.8,0,8.69-.3,8.69-.6Zm-44.92-6.89c0-1.8-2.09-3-4.79-3s-3.89,1.19-2.69,3a6.09,6.09,0,0,0,4.79,3C365.27,145.68,366.16,144.49,366.16,142.69Zm10.48,0c-.89-1.8-2.39-3-3.29-3s-1.2,1.19-1.2,3a3.08,3.08,0,0,0,3.3,3C377.24,145.68,377.84,144.49,376.64,142.69Zm-97.31-15c-3.89-2.7-3.29-4.19,3.6-10.18,4.49-3.89,8.38-9,8.38-11.08s-1.8-1.2-4.19,2.1-5.39,4.79-6.59,3.59-.6-2.4,1.2-2.4,3.59-2.09,3.59-4.49c0-5.69-5.69-5.69-7.78,0-.9,2.4-3,3.6-4.5,2.7a3.3,3.3,0,0,1-.89-4.49c.89-1.5.3-2.7-1.2-2.7a7,7,0,0,0-4.79,3,3.82,3.82,0,0,1-5.09,1.19c-2.1-1.19-1.5-2.69.9-4.49,3.29-2.09,3.29-2.69-.3-2.39-5.69,0-21,8.68-15.57,8.68,2.09,0,3,1.2,2.39,2.7-.9,1.49,1.5,2.09,5.09,1.19l6.59-1.49-6.89,4.19-6.88,4.19,8.38,3.89c6,2.7,8.68,3,9.28.3s2.4-2.39,5.39.3c3.59,3,3.59,4.19.6,6-2.69,1.5-.9,2.39,5.09,2.39,6.89.3,7.79-.29,4.19-2.69ZM268,116.94c-4.19-4.49-1.49-5.39,4.8-1.5,2.09,1.5,3,3.3,1.49,4.2C273,120.53,270.05,119.34,268,116.94Zm117.68-.6c-1.8-1.79-7.49,2.7-7.49,5.69,0,1.5,1.8,1.2,4.19-.9S386.23,116.64,385.63,116.34Zm-85.34,4.19c0-.6-2.09-2.09-4.49-3-2.69-.9-3.89-.6-2.69,1.2C294.6,121.73,300.29,122.93,300.29,120.53ZM254.78,90.29c2.7-2.39,1.2-3-5.39-3-4.79,0-11.38,2.69-14.07,6-5.09,5.69-5.09,5.69,1.2.3,6.58-5.69,12.27-2.4,8.38,4.79-.9,2.09,0,1.79,2.1-.6,2.39-2.4,6-6,7.78-7.49Zm24.55,4.19c0-1.79-1.49-2.39-3-1.19s-3,2.39-3,3.29,1.5,1.2,3,1.2A3.28,3.28,0,0,0,279.33,94.48ZM263.76,71.73a18.11,18.11,0,0,0-9,0c-2.1.9.3,1.5,5.39,1.5S266.46,72.63,263.76,71.73Zm23.36-3.3c-.9-.89-3.3,0-5.39,2.1-3,3-2.7,3.29,1.79,1.8C286.22,71.13,288,69.33,287.12,68.43Zm34.13-3.89a2.64,2.64,0,0,0-2.39-2.69c-1.5,0-2.4,1.79-2.4,4.49,0,2.39,1.2,3.59,2.4,2.69A5.27,5.27,0,0,0,321.25,64.54Zm-12-5.69c-1.79-3.29-2.39-7.78-1.19-9.58,1.49-2.39.3-2.09-3,.6-4.79,3.89-4.79,4.49,0,9.58,6.59,7.19,8.39,6.89,4.19-.6ZM294,60.65c-.59-.6-5.39-2.1-10.18-3-6.58-1.5-7.78-1.2-4.49.89C283.52,61.55,297,63.34,294,60.65Zm-26.64-8.08c3.89-2.7,3.89-3,0-1.8-2.4.6-7.19,0-10.48-1.8-5.39-2.69-5.69-2.69-1.8,1.8,4.79,6,6.29,6,12.28,1.8Zm15-4.2c0-2.69-1.8-3.59-4.79-2.69-3.9,1.5-3.9,2.39-.6,4.19C282.33,53.76,282.33,53.46,282.33,48.37Zm79-1.49c11.68,0-.3-6.59-13.17-7.19-7.79-.3-14.07-2.69-16.47-5.69-5.39-7.18-7.48-6.29-7.48,3.59,0,7.19,1.19,8.39,5.68,7.19,3.3-.9,9,.6,12.58,3.29,4.49,3.3,7.79,3.6,9.88,1.8,1.8-1.8,5.69-3,9-3Zm-67.07,0a3.07,3.07,0,0,0-3.29-3c-1.8,0-2.4,1.2-1.2,3s2.4,3,3.3,3S294.3,48.67,294.3,46.88Zm81.45-29.05c-2.1-.9-4.79-.9-5.69.3-.9.9.9,1.8,3.89,1.5,3.59,0,4.19-.9,1.8-1.8Zm79.34,656c-3.29-3.29.9-7.18,7.49-7.18,5.09,0,5.69.59,2.39,4.49C461.08,676,458.09,676.86,455.09,673.86Zm-321-73.06c-8.38-9.58-15.57-16.76-16.16-16.17s-4.5-3.29-8.39-8.38c-7.18-9.88-17.36-17.07-24.25-17.07-2.1,0-3,1.2-2.1,2.7,1.2,1.8-1.79,1.5-7.18-.3-6.89-2.4-11.08-7.49-18.27-23.06-15.27-32-15.27-32.93-8.38-36.53,3.59-1.79,5.39-5.09,4.49-7.48s-.3-4.19,1.2-4.19,3-2.1,3-4.79c0-3,2.1-4.49,6.59-3.6,4.79.6,6.59-.6,6.89-4.19,0-2.69,1.19-6,2.39-7.18s2.1-.6,2.1,1.19,4.19,4.2,9,5.39,9,3.6,9,5.69,3.59,5.69,8.39,7.79c4.49,2.39,9,4.49,9.88,5.09s1.19-3.9.3-9.58c-1.5-12.88,4.19-14.08,6.88-1.5,1.2,4.79,3,9,4.49,9s4.2,5.09,6.29,11.38,6.59,14.07,9.88,17.66c9,9.29,13.78,15.57,13.78,18,0,1.2,2.09,4.49,4.79,7.49,6.28,6.88,7.78,29.34,2.39,37.12-2.39,3.3-4.19,8.39-4.19,11.38s-3,6-7.49,7.19c-7.48,1.79-7.48,2.09-1.49,6.29s8.38,10.18,3.89,9.58c-1.5-1.2-9.28-9.29-17.67-18.87Zm23.66-46.41c-.9-2.69-2.4-3.89-3.3-3.29-.89.9-.59,3,.6,4.49C158.07,560.38,159.56,559.48,157.77,554.39Zm27.54,58.69c-1.79-3,21.26-15.27,28.45-15.27,3.59,0,3.59-.6-.3-3-3.59-2.39-3.59-3-.3-3,3,0,3.59-2.39,2.4-9-.9-5.09-.6-9,1.19-9a3.22,3.22,0,0,1,3,3c0,1.5,2.69,5.69,6.29,9.28l6.28,6.29-6.88,4.79c-3.9,2.7-7.79,5.09-8.39,5.09-.89,0-5.69,3-11.08,6.89C195.79,616.07,188,617.57,185.31,613.08Zm28.75-72.76c-2.1-2.1-3.59-4.79-3.59-6,0-4.49,4.49-2.39,8.38,3.6,4.19,6.58.9,8.08-4.79,2.39Zm471-3c1.19-3.6,3.29-21.56,4.79-39.53,1.49-19.46,4.49-36.23,7.48-41.32,3.9-7.18,4.19-10.78,1.2-23.05-1.8-8.09-2.69-20.06-1.5-26.95,1.8-10.78,1.5-12-4.19-12-3.59,0-6.29-1.79-6.29-4.49,0-5.69-5.69-5.69-13.47,0-3.29,2.4-8.08,3.59-11.08,2.7s-7.78-.3-11.08,1.49c-7.48,3.9-20.36-5.69-26.35-19.76-2.39-5.39-6-9.58-7.78-9.28-2.7.6-3.59-4.79-3.59-19.16,0-11.08,1.19-19.17,2.39-18.57,1.2.9,2.1-3,1.8-8.68-.3-5.39,1.79-14.67,5.09-20.36s5.69-12.58,5.69-15,1.49-4.19,3-4.19c4.19.6,20.36-11.08,18-13.18-.9-.9.6-4.19,3.29-7.18s3.89-5.39,2.69-5.39-.59-2.4,1.8-5.39c3.59-4.79,3.59-4.79-1.2-1.2-3,2.39-5.39,3.29-5.69,2.39s-.59-3.59-.89-5.68-3-3.3-6-2.7c-5.09.9-5.39-.3-3.3-10.48,1.2-6.29,2.1-14.67,1.8-18.56-.3-11.08,2.4-12.88,12-7.79,8.08,4.19,8.68,4.19,8.68-.9,0-3-3.29-10.18-7.48-15.57-9-12-9-12.27-2.4-10.18,4.79,1.5,4.79,1.2.3-2.39-5.09-4.19-5.39-5.09-6-15.27-.3-5.09-.6-5.39-1.8-1.5-.59,3-3,5.39-5.39,5.39-5.38,0-8.08-12-3-13.77a4.29,4.29,0,0,0,2.4-5.69c-1.2-3,0-3.6,3.59-2.4,4.19,1.5,4.79.9,3.29-3-1.19-3.3-.9-4.49,1.2-3.3,1.8,1.2,2.4,3.9,1.5,6.29S650,152,654.21,159.46c4.19,7.18,6.58,15.57,6,18.56-.89,3,0,2.4,1.8-1.2,3-5.38,2.4-8.38-3.29-17.36-3.6-6-6-11.38-5.39-12.28,1.79-1.79,19.16,23.36,21.86,31.14,1.19,3.59,3,6.29,4.19,6.29,4.49,0,36.23,70.66,36.23,80.84,0,2.7-2.1,1.8-6-2.39-5.39-6-12-8.69-12-5.39,0,2.09,12.28,22.75,13.78,22.75.59,0,.3-2.09-.9-4.79-1.5-4.19-.9-4.49,3.59-1.79,3,1.79,5.69,5.69,6,8.68s1.5,9.58,2.39,14.67,3.9,22.76,6.29,39.52c4.79,33.24,2.4,75.76-6.29,113.78-2.39,10.18-3.42,23.11-4.19,28.45-2.42,17-8.42,30-12.27,34.43-3.3.9-9.29,8.09-13.18,16.17-6.59,15-11.38,19.46-7.78,7.79Zm20.06-287.45c-2.1-2.09-3.6-2.39-3.6-.3,0,3.9,3.6,7.49,5.69,5.69.9-1.2,0-3.59-2.09-5.39Zm-7.79,0c-2.39-11.37-12.87-29-16.76-29-5.39,0-13.18,12.57-11.08,18.26.6,2.1,3.89,4.2,7.18,4.2,15.57.89,19.17,1.49,18.87,3.59-.6,3.59.3,6.59,1.49,6.59.6,0,.6-1.8.3-3.6Zm-421,274.27c0-2.69,1.5-4.19,3.59-3.59,5.69,1.8,6.59,8.38,1.2,8.38a4.72,4.72,0,0,1-4.79-4.79ZM286.82,520c-1.2-1.8.3-3,2.69-3,5.39,0,6,1.79,1.8,4.49C290.11,522.36,288,521.76,286.82,520Zm-62.58-7.78c-2.4-6.59.9-9.59,4.49-3.9s3.59,9,.3,9C227.23,517,225.44,514.87,224.24,512.18ZM198.49,481c0-1.5-2.1-2.1-4.49-1.2-5.39,2.09-6-3-.6-7.19,2.69-2.39,4.79-1.2,7.19,4.19,1.79,3.9,2.09,7.19.59,7.19a2.77,2.77,0,0,1-2.69-3Zm-58.39-3.9a34.49,34.49,0,0,1-9.88-8.68c-4.19-6-12.57-7.49-12.57-2.4,0,1.5-2.7,3-6,3s-6-1.5-6-3-2.7-3-6-3-6-1.5-6-3a3,3,0,0,1,3-3c6,0-4.2-11.38-14.38-16.17-6.88-3.29-9.58-6.28-8.68-9.28.9-2.69,0-4.49-2.69-4.49s-3.6,1.8-2.7,4.49c1.2,3.29-.3,4.49-6,4.49-4.19,0-8.38-1.49-9.58-3s.9-3,4.19-3,6.29-1.49,6.59-3a36.63,36.63,0,0,0,.6-5.69c.6-4.49,4.79-7.48,4.79-3.59,0,2.09,1.2,3,2.7,2.09s4.19.3,6.28,2.7,2.7,4.49,1.2,4.49-.9,1.5.9,3.59c2.69,2.7,4.49,2.7,7.78-.3,3.6-3,7.19-2.09,19.17,3.9,8.08,4.19,16.46,9.58,18.56,12.27s7.49,4.79,12.28,4.79c8.38,0,16.47-6.29,12.87-9.88-1.2-1.2-.6-2.09,1.5-2.09,6.29,0,6.89,6,1.2,12.27-3.9,4.19-7.79,5.69-12,4.49-10.48-3.29-11.08,4.79-1.2,13.78,10.78,8.08,10.18,12.87,0,7.18Zm35.63-8.68c-1.49-2.4-.6-3,2.4-1.8,2.69.9,6,.3,7.48-1.19,2.1-2.1,3.6-1.8,5.09.29,1.2,1.8,1.5,3.3,1.2,3.6-9.28,2.09-14.37,2.09-16.17-.9ZM41,459.48c-1.49-2.4-6.28-6.59-10.77-9.28-11.38-7.19-15.57-15.87-9-18.57,2.7-1.2,4.19-.9,3,.3-3,3,6.88,13.47,10.78,11.08,1.79-1.2,2.09-.3.89,1.5-1.19,2.09.9,4.19,5.69,5.39,8.09,2.09,9,3.59,4.79,9.88-2.39,3.29-3.29,3.29-5.39-.3Zm9.59-.6a11.22,11.22,0,0,1,6.28-6c3.3-1.2,4.2-.3,2.7,3a46.93,46.93,0,0,0-1.8,6c0,.6-2.09,1.2-4.49,1.2S49.68,461.27,50.58,458.88Zm115-1.8c-4.19-7.48-.6-7.48,9,0,7.48,5.69,7.48,6,.89,6A12.57,12.57,0,0,1,165.55,457.08Zm-95.81-1.2c0-.59,1.2-2.09,3-3.29s3-.3,3,1.2a3.26,3.26,0,0,1-3,3.29C70.94,457.08,69.74,456.48,69.74,455.88Zm10.78-4.49c-1.2-2.09-1.5-4.49-.6-5.69,2.69-2.69,5.69,1.2,4.19,5.69C83.21,454.69,82.31,454.69,80.52,451.39ZM38.9,440.31c-1.2-1.19-2.1-8.38-2.4-15.87-.3-11.67-.6-12.27-2.39-4.79-1.2,4.79-3,8.69-4.19,8.39a23.3,23.3,0,0,0-4.79-.6c-6,0-6.29-20.36-.6-34.73,5.69-14.08,6.58-14.08,7.78,2.09.9,11.38,4.19,15.27,12.28,13.78q7.19-1.35,7.18,2.69c0,2.4-3,4.19-6.58,4.19l-6.59.3,6.59,2.7C48.78,420,51.77,423,51.77,425c0,3-.6,3-2.69-.3-1.5-2.09-3.29-3-4.19-1.49s-.3,4.79,1.19,7.18a19.57,19.57,0,0,1,2.7,9c-.3,3.59-.6,3.59-1.8.3-1.19-3-2.39-3-3.59-.6-1.5,1.49-3.29,2.09-4.49,1.19Zm297.92-10.18c1.5-4.49,6.29-5.09,7.79-.59.6,2.09-.9,3.59-3.6,3.59S336.22,431.63,336.82,430.13ZM85,425.94c-.3-3,.6-4.79,1.5-3.89s1.19,3.59.3,5.69c-.9,2.39-1.5,1.8-1.8-1.8ZM11.35,408.58c-3.29-28.15-3.59-29.35-1.2-30.84,1.2-.6,3,7.18,4.2,17.36s2.69,21.56,3.59,25.45.3,6.59-1.5,6.59c-1.5,0-3.89-8.38-5.09-18.56Zm46.41,18c-2.39-7.48-2.09-15.57,0-19.76,2.4-3.89,3-2.1,3,7.78,0,6.89-.6,12.58-1.5,12.58-.6,0-1.5-.3-1.5-.6ZM192.5,401.69c0-2.4-3.29-6-7.48-8.09-6.59-3-10.48-8.38-6-8.38,2.69,0,15,7.49,17.06,10.48,3.3,4.49,2.7,10.48-.59,10.48C194,406.18,192.5,404.08,192.5,401.69ZM42.79,382.23c-2.1-4.2-2.1-6,0-6,1.8,0,3-2.1,3-4.79s1.19-3.89,3-2.7c3.89,2.4,3.89,19.47,0,19.47C47.28,388.22,44.59,385.52,42.79,382.23Zm-15-9.58c0-2.1,1.5-6,3-8.39,2.4-3.59,3-3.29,3,2.1,0,3.59-1.2,7.48-3,8.38S27.82,374.74,27.82,372.65Zm-18.26-9c-1.2-29.94,9.28-98.51,15.57-100.6,1.49-.6,2.69-4.19,2.69-7.79,0-8.08,13.77-43.71,19.16-49.1,3.3-3.3,4.19-3.3,5.69.9,1.2,3,.6,4.19-1.5,3s-2.69,0-1.19,4.19c1.19,4.19,0,7.79-3.9,11.68-6.28,6-12.27,19.16-12.27,27.25,0,4.19.6,3.89,4.49-.9a28,28,0,0,0,4.49-14.07c0-4.5,1.5-8.39,3-8.39,5.38,0,3,20.66-3.6,33.54-5.69,11.08-6.88,12-7.78,6-.6-3.6-2.1-6.59-3.3-6.59-6,0-8.68,37.13-3.29,40.42,5.09,3,3.59,14.37-1.5,12.28-6.58-2.4-9.58,6.28-9.88,28.14-.3,29.64-.3,29.94-3.59,29.94-1.5-.3-3-4.79-3.29-9.88Zm28.14-.6c.9-4.79.3-6.58-2.39-5.69-4.8,1.8-9-22.75-4.5-26.94,2.1-2.1,3-.3,3,5.69,0,5.39,3,12,7.78,17.06,6.59,6.89,7.19,9,4.2,12.88-5.39,6.59-9.89,5.09-8.09-3Zm351.82-50.3c2.69-2.69,4.49-2.69,7.19,0s2.09,3.59-3.6,3.59-6.29-.89-3.59-3.59Zm18.56.3c0-1.8,1.8-2.69,4.2-1.8a4.56,4.56,0,0,0,6-3c1.2-2.69,3.3-3.59,5.39-2.1a17.91,17.91,0,0,0,10.18,1.5c3.6-.3,7.49.6,8.39,2.4,1.19,1.79-.3,3.29-3.3,3.29s-11.08.9-18.26,1.8c-8.09.89-12.58.3-12.58-2.1Zm41.32-.3c2.7-2.69,4.49-2.69,7.19,0s2.1,3.59-3.59,3.59-6.29-.89-3.6-3.59Zm-68.86-16.17c-4.49-2.39-9.88-3.59-11.68-2.39-2.1,1.19-2.7.6-1.2-1.5s0-3.29-4.19-3.29c-3.59,0-5.69,1.19-4.79,2.39s-1.2,2.4-4.19,2.4c-8.09,0-7.19-4.19,1.49-8.09,5.69-2.69,10.78-1.79,25.45,3.9,18,6.88,23.36,11.67,12.88,11.37-3.29-.3-9.28-2.39-13.77-4.79Zm267.08-39.82a3.28,3.28,0,0,1,3-3.29c1.5,0,3,.59,3,1.19s-1.5,2.1-3,3.3S647.62,258.27,647.62,256.77Zm6-55.39c0-.6,1.49-2.1,3-3.3s3-.3,3,1.2-1.5,3.29-3,3.29S653.61,202,653.61,201.38Zm-592.85-15c0-2.4,1.19-5.39,3-6.29s3,.3,3,2.69-1.19,5.39-3,6.29S60.76,188.8,60.76,186.41Zm12,0c0-.6,1.2-2.1,3-3.3s3-.3,3,1.2a3.26,3.26,0,0,1-3,3.29C73.93,187.6,72.73,187,72.73,186.41Zm18-16.47a3.08,3.08,0,0,1,3-3.3c1.8,0,3,.6,3,1.2s-1.2,2.1-3,3.3S90.7,171.44,90.7,169.94Zm4.49-27.25c-.9-1.8-3.29-2.1-5.39-.9s-1.8,0,.6-3c4.19-5.39,13.77-6.89,16.47-2.7.9,1.2-1.2,3.9-4.2,6C99.08,144.19,96.39,144.49,95.19,142.69ZM491,100.47c-3-1.79-7.48-2.39-9.88-1.49-2.69.89-3.59.29-2.69-1.2.9-1.8.3-3-1.8-3-6.59,0,0-3.89,8.38-4.79,9.29-.9,26.05,6.89,23.36,10.78-2.4,3.89-10.48,3.59-17.37-.3Z"/></g><circle class="cls-3" cx="369.04" cy="369" r="365"/><path class="cls-4" d="M101.54,306.92l60.75,76.37V330.35q0-11.09-3.17-15-4.37-5.26-14.63-5.08v-3.36h40.69v3.36c-5.21.66-8.7,1.53-10.49,2.58a10.42,10.42,0,0,0-4.18,5.18q-1.5,3.58-1.5,12.31V432.88h-3.08L82.65,330.35v78.28q0,10.62,4.86,14.35a17.77,17.77,0,0,0,11.12,3.72h2.91v3.36H57.86V426.7Q68,426.61,72,422.52t4-13.89V321.72l-2.64-3.27q-3.9-4.9-6.9-6.45t-8.62-1.72v-3.36Z"/><path class="cls-4" d="M294.34,426.7v3.36H230V426.7h2.64c4,0,7.19-.53,9.4-1.59a7.92,7.92,0,0,0,4.31-4.31q1-2.73,1-11.81V377.12A64.47,64.47,0,0,1,229.45,374a39.87,39.87,0,0,1-16.89-9.45,31.52,31.52,0,0,1-8.63-13.66q-2.13-7.32-2.31-22.48-.18-11.9-1.5-15.12t-6-3.23c-.49,0-1.06,0-1.73.1v-3.46a37.26,37.26,0,0,1,9.45-1.27,30,30,0,0,1,14.3,3.36,24.53,24.53,0,0,1,9.54,8.49,28,28,0,0,1,4.08,10.4Q230.59,333,231,347q.45,13.53,4.9,18.43a15.16,15.16,0,0,0,11.54,5V328a62.57,62.57,0,0,0-.55-10.36,8.79,8.79,0,0,0-3.45-5q-2.91-2.31-11-2.31H230v-3.36h64.3v3.36H292q-8.44,0-11.17,2.45a9.79,9.79,0,0,0-3.27,4.72c-.36,1.51-.55,5-.55,10.54V370.4q6.83-.73,10.36-3.91a14.93,14.93,0,0,0,4.58-8.63A117.49,117.49,0,0,0,293.34,341q.36-11.89,2.59-18.57t9.22-11.81q7-5.13,17.16-5.13a37.26,37.26,0,0,1,9.45,1.27v3.46l-1.64-.1q-4.72,0-6.17,3.5T322.49,328a115.29,115.29,0,0,1-1.22,18.93,33.08,33.08,0,0,1-6.4,13.9,36.09,36.09,0,0,1-14.4,11.12q-9.23,4.19-23.48,5.18V409c0,5.7.26,9.43.78,11.22a8.12,8.12,0,0,0,3.9,4.59q3.13,1.9,9.67,1.9Z"/><path class="cls-4" d="M421.94,304.1l1,41h-3.73q-2.62-15.43-12.94-24.84T384,310.91q-9.27,0-14.67,4.95t-5.4,11.4a13.82,13.82,0,0,0,1.9,7.26,30.78,30.78,0,0,0,8.45,8.45q4.26,3,19.71,10.63,21.6,10.62,29.15,20.07a34,34,0,0,1,7.45,21.61q0,15.44-12,26.56T388,433a49.77,49.77,0,0,1-11-1.18,83,83,0,0,1-13-4.45,19.72,19.72,0,0,0-7.18-1.82,8.89,8.89,0,0,0-5,1.82,12.63,12.63,0,0,0-4.27,5.54H344.2v-46.5h3.36q4,19.62,15.39,29.92t24.57,10.31q10.17,0,16.21-5.54t6-12.89a16.85,16.85,0,0,0-2.32-8.45,26.79,26.79,0,0,0-7-7.76q-4.71-3.69-16.71-9.59-16.8-8.25-24.15-14.07a43.18,43.18,0,0,1-11.31-13,32.24,32.24,0,0,1-3.95-15.8,33.44,33.44,0,0,1,10.81-25.07q10.8-10.35,27.24-10.35A46.79,46.79,0,0,1,394,305.55a59.23,59.23,0,0,1,10.4,4q6.12,3,8.58,3a4.86,4.86,0,0,0,3.72-1.46c.91-1,1.76-3.3,2.54-7Z"/><path class="cls-4" d="M515.39,395h-43.5l-5.18,12q-2.55,6-2.54,9.89a8.21,8.21,0,0,0,4.18,7.63q2.44,1.46,12.07,2.18v3.36H439.47V426.7a18.25,18.25,0,0,0,10.89-5.49q4.27-4.5,10.54-18.57l44-98.27h1.73l44.41,101q6.36,14.36,10.44,18.07,3.09,2.82,8.72,3.27v3.36H510.67V426.7h2.45q7.17,0,10.08-2a4.84,4.84,0,0,0,2-4.17,11.24,11.24,0,0,0-.55-3.36q-.18-.82-2.72-6.81Zm-3.09-6.72L494,345.88l-18.89,42.41Z"/><path class="cls-4" d="M622.55,374.3v34.15q0,10,1.23,12.58a8.94,8.94,0,0,0,4.36,4.13q3.14,1.54,11.48,1.54v3.36H577.05V426.7q8.54,0,11.58-1.59A9.26,9.26,0,0,0,592.9,421q1.23-2.53,1.23-12.53V328.53q0-10-1.23-12.58a9,9,0,0,0-4.31-4.13q-3.09-1.54-11.54-1.54v-3.36h53.67q26.52,0,38.06,9.44T680.31,340a30.15,30.15,0,0,1-7.45,20.53q-7.44,8.53-20.52,11.62Q643.54,374.29,622.55,374.3Zm0-60.3v53.22c2,.12,3.51.18,4.54.18q11.08,0,17.08-6.58t6-20.39q0-13.71-6-20.07T626.27,314Z"/></g></g></svg>